<?xml version="1.0" encoding="utf-8"?>
<!-- Generator: Adobe Illustrator 27.0.0, SVG Export Plug-In . SVG Version: 6.00 Build 0)  -->
<svg version="1.1" id="Layer_1" xmlns:figma="http://www.figma.com/figma/ns"
	 xmlns="http://www.w3.org/2000/svg" xmlns:xlink="http://www.w3.org/1999/xlink" x="0px" y="0px" viewBox="0 0 109 24"
	 style="enable-background:new 0 0 109 24;" xml:space="preserve">
<style type="text/css">
	.st0{fill:#016533;}
	.st1{fill:#006533;}
	.st2{fill:#016433;}
</style>
<g transform="translate(0.000000,1278.000000) scale(0.100000,-0.100000)">
	<g>
		<path class="st0" d="M-20.3,12858c-0.6-0.2-4.8-2-9.4-4s-8.9-3.9-9.7-4.2l-1.3-0.6l-4.5-8.4l-4.5-8.4l-1.1-0.6
			c-0.6-0.3-1.8-1-2.6-1.4l-1.5-0.8l-0.8,0.1c-0.5,0.1-1.2,0.3-1.6,0.4c-0.9,0.4-2.5,1.5-3.2,2.4l-0.5,0.6l0.1,2.8l0.1,2.8l-1.6,3.8
			c-0.9,2.1-1.7,3.8-1.7,3.8c0,0-3.2-4.1-6.9-9.1l-6.8-9.1l0-10.4v-10.4l-0.4-0.8c-1-1.9-2.4-3.2-3.9-3.6c-1.5-0.5-4-0.2-5.4,0.6
			c-0.6,0.3-0.7,0.4-1.2,1.9l-0.5,1.6l-4.1,3.5c-2.3,1.9-4.1,3.5-4.1,3.4c-0.1-0.1-2.7-23.1-2.7-23.6c0-0.2,1.7-3.7,4.4-8.9
			c2.4-4.7,4.6-8.9,4.8-9.5c0.4-1.3,0.6-3.2,0.3-4c-0.2-0.8-1.6-2.1-2.6-2.5c-0.9-0.4-2.3-0.8-3.1-0.8c-0.3,0-1.1,0.2-1.8,0.4
			c-3.1,1.1-11.5,4-11.6,4c-0.1,0,0.4-1.3,1-2.9c0.6-1.6,2.4-6.5,4-10.9l2.9-7.9l8.4-5.1c7.8-4.8,8.5-5.2,9.5-6.2
			c1.4-1.5,1.9-2.3,2-3.8c0.1-2.4-0.7-4.3-2.5-5.4l-0.6-0.4h-2.4h-2.4l-4.3-1.6c-2.4-0.9-4.3-1.7-4.3-1.8c0-0.1,4.2-3.4,9.3-7.5
			l9.3-7.4h1.6c0.9,0,5.3-0.1,9.9-0.2c8.7-0.2,8.8-0.2,10-0.9c1.9-1,2.9-3.4,2.3-5.6c-0.5-2-1.1-2.8-5.6-7.7
			c-2.3-2.5-4.2-4.6-4.2-4.6c0,0,2.8-0.4,16.9-2.4c2.5-0.4,4.9-0.7,5.3-0.7l0.8-0.1l7.7,4.4c4.2,2.4,8,4.5,8.4,4.7
			c0.4,0.2,1.3,0.4,2.1,0.6c2.4,0.4,4-0.1,5.1-1.5c0.8-1,2.1-3.9,2.1-4.6c0-0.1-0.5-0.9-1.1-1.9l-1.1-1.7l-0.6-4.4
			c-0.4-2.4-0.6-4.5-0.6-4.6c0-0.2,1.8,0.4,10.6,4l10.6,4.2l4.6,8.2c4.9,8.7,5.2,9.2,6.8,10.3c1.8,1.2,4.2,1.5,5.7,0.8
			c0.9-0.4,2.2-1.4,3-2.2l0.6-0.6l-0.2-2.6l-0.2-2.6l1.8-3.9c1-2.2,1.8-3.9,1.9-3.9c0.1,0,3.2,4,7,8.9l6.9,8.9l0,10
			c0,10,0,10.1,0.3,11.2c0.8,3,2.3,4.9,4.3,5.4c0.6,0.1,0.8,0.1,1.7-0.1c1-0.3,2.4-1.1,3-1.6c0.2-0.2,1-1.3,1.7-2.5l1.4-2.2l3.1-2.4
			c1.7-1.4,3.1-2.5,3.2-2.6c0.1-0.1,0.2-0.1,0.2-0.1c0.1,0.1,0.4,2.7,2.3,17l0.9,7.1l-4.5,7.5c-4.7,7.8-4.8,8-5.3,10.5
			c-0.5,2.5-0.2,4.5,0.9,5.5c0.7,0.7,2,1.4,3.2,1.7c1.5,0.4,1.6,0.3,3.4-0.9c0.9-0.6,1.8-1.1,2-1.2c0.4-0.2,9.6-2.3,9.9-2.3
			c0.1,0-1.6,4.2-4,10.1c-2.3,5.5-4.5,10.7-4.8,11.5l-0.6,1.4l-7.2,3.8l-7.2,3.8l-1.1,1.3c-2.6,3.2-3.8,6.5-3,8.3
			c0.3,0.6,1.4,1.7,2.3,2.3l0.7,0.5l2.6-0.2l2.6-0.2l4,1.9c2.2,1,3.9,1.9,3.9,2c0,0-4,3.2-8.8,7l-8.8,6.9h-9.2h-9.2l-1.1,0.4
			c-1.8,0.7-4.1,2-4.9,2.7c-1.1,1-1.4,1.6-1.4,3c0,1.3,0.3,2.2,1.2,3.6c0.5,0.8,0.5,0.8,2.3,1.6l1.8,0.8l3,3.8l3,3.8l-0.4,0.1
			c-0.2,0.1-4.9,0.7-10.4,1.4c-5.5,0.7-10.6,1.4-11.5,1.5l-1.5,0.2l-7.7-4.9l-7.7-4.9l-1.9,0.1c-1,0.1-2.8,0.1-4,0.1h-2.1l-0.4,0.5
			c-0.8,1-1.5,3-1.5,4.4c0,0.6,0.2,0.9,1.3,2.8l1.3,2.2l0.4,3.8c0.2,2.1,0.5,4.1,0.5,4.4c0.1,0.3,0,0.6,0,0.6
			C-19.1,12858.4-19.7,12858.2-20.3,12858z M-15.5,12786.1c6.7-1.2,12.2-6,14.3-12.5c0.7-2,0.9-3.6,0.9-5.9c0-5.2-1.7-9.5-5.3-13.2
			c-2.6-2.6-5.3-4.2-8.8-5.1c-1.4-0.4-1.7-0.4-4.3-0.4c-2.7,0-2.9,0-4.5,0.5c-2.1,0.6-4.9,1.9-6.5,3.2c-3.4,2.6-5.8,6.3-6.8,10.5
			c-0.5,2-0.6,5.4-0.3,7.4c1,5.9,4.5,10.8,9.7,13.6c1.4,0.8,3.7,1.6,5.3,1.9C-20.5,12786.4-17.1,12786.4-15.5,12786.1z"/>
	</g>
</g>
<g>
	<g>
		<path class="st1" d="M6.1,16.9l5.8-1.2c0.5,1.8,1.7,2.7,3.7,2.7c1.6,0,2.3-0.5,2.3-1.4c0-0.5-0.2-0.9-0.5-1.1
			c-0.4-0.3-1-0.5-1.9-0.7c-3.6-0.8-5.8-1.8-6.8-3c-1-1.2-1.5-2.7-1.5-4.3c0-2.1,0.7-3.9,2.2-5.3s3.5-2.1,6.3-2.1
			c4.1,0,6.8,1.9,8.2,5.6l-5.1,1.7C18,6.3,17,5.5,15.3,5.5c-1.4,0-2,0.5-2,1.4c0,0.4,0.2,0.7,0.5,1s0.9,0.5,1.8,0.7
			c2.4,0.6,4.1,1.1,5.2,1.5c1,0.4,1.9,1.2,2.6,2.3c0.7,1.1,1,2.3,1,3.8c0,2.3-0.8,4.2-2.5,5.6c-1.7,1.4-3.8,2.1-6.5,2.1
			C10.3,23.8,7.3,21.5,6.1,16.9z"/>
		<path class="st1" d="M41.9,18.1v5.4H26.6V0.8h15.2v5.2h-9.1v3.3h7.4v5h-7.4v3.7H41.9z"/>
		<path class="st1" d="M58.5,17.9v5.6H44.3V0.8h6.2v17.1H58.5z"/>
		<path class="st1" d="M58.6,16.9l5.8-1.2c0.5,1.8,1.7,2.7,3.7,2.7c1.6,0,2.3-0.5,2.3-1.4c0-0.5-0.2-0.9-0.5-1.1s-1-0.5-1.9-0.7
			c-3.6-0.8-5.8-1.8-6.8-3c-1-1.2-1.5-2.7-1.5-4.3c0-2.1,0.7-3.9,2.2-5.3c1.4-1.4,3.5-2.1,6.3-2.1c4.1,0,6.8,1.9,8.2,5.6l-5.1,1.7
			c-0.5-1.5-1.6-2.3-3.2-2.3c-1.4,0-2,0.5-2,1.4c0,0.4,0.2,0.7,0.5,1c0.3,0.2,0.9,0.5,1.8,0.7c2.4,0.6,4.1,1.1,5.2,1.5
			c1,0.4,1.9,1.2,2.6,2.3c0.7,1.1,1,2.3,1,3.8c0,2.3-0.8,4.2-2.5,5.6c-1.7,1.4-3.8,2.1-6.5,2.1C62.8,23.8,59.8,21.5,58.6,16.9z"/>
		<path class="st1" d="M85.4,0.8v22.7h-6.2V0.8H85.4z"/>
	</g>
</g>
<g transform="translate(0.000000,858.000000) scale(0.100000,-0.100000)">
	<g>
		<path class="st2" d="M1005.6,8535.7c-0.4-0.2-31-14.1-68.2-30.8c-67.2-30.3-67.5-30.4-68.4-30.4l-0.9,0.1V8446v-28.6l0.8-0.1
			c0.4-0.1,5.7-0.6,11.8-1.3c13.9-1.5,25.5-2.8,36.2-4c7.7-0.9,18.9-2.1,39-4.3c11.9-1.3,20-2.2,20.3-2.3c0.1,0,0.3,0.1,0.3,0.2
			c0,0.2,0.6,0.7,1.1,1.2c1.5,1.3,51.9,45.4,76.3,66.7c11.3,9.9,20.7,18.1,20.8,18.3c0.2,0.3,0.3,1.9,0.4,18.2l0.1,17.9l-3.1,0.3
			c-1.7,0.2-4.5,0.5-6.3,0.7c-1.8,0.2-6.3,0.7-10,1.1s-8,0.9-9.4,1.1c-1.4,0.2-5.6,0.6-9.4,1.1s-8.3,0.9-10,1.1
			c-1.8,0.2-6.3,0.7-10.1,1.1c-6.8,0.8-9.8,1.1-10.4,1.3C1006.4,8536.1,1005.9,8535.9,1005.6,8535.7z M1010.3,8529.3
			c1.3-0.1,1.7-0.2,1.7-0.4c0-0.3-5.4-3.4-8.9-5.1c-1.2-0.6-4.3-2-6.9-3.2c-2.6-1.2-6.3-2.8-8.3-3.8c-2-0.9-6.9-3.1-11.1-4.8
			c-9.5-4-11.4-4.8-17.3-7.6c-12-5.6-20-10.2-23.5-13.5c-1.8-1.6-1.6-1.9,0.6-0.8c1.3,0.6,2.8,1.6,9.5,5.7c5.2,3.2,7.7,4.3,16.3,6.9
			c7.1,2.2,13.9,4.8,25.6,9.7c7.1,3,12.3,5.4,18.8,8.4c7.5,3.6,8.8,4.3,11.8,6.6l0.9,0.7l1.2-0.1c1.5-0.1,2-0.2,2-0.4
			c0-0.1-0.4-0.3-0.9-0.6c-0.5-0.3-1.5-0.9-2.2-1.5c-2.8-2.3-4.6-3.3-11.6-6.7c-6.4-3-12.6-5.9-19.4-8.7c-6.5-2.7-11.1-4.8-16.1-7.2
			c-4.4-2.1-8.1-3.7-15.8-6.9c-13.5-5.6-16.5-7.1-25.9-13c-6-3.7-10.7-7.1-16.3-11.5c-1-0.8-1.9-1.5-2.1-1.6
			c-0.1-0.1-2.1,0.1-4.4,0.4c-5.3,0.6-5.5,0.6-5.5,0.8c0,0.4,3.1,3,6.3,5.4c3.2,2.3,6.6,5.3,12.3,10.5c3.7,3.5,4.3,4.1,4.2,4.3
			c-0.1,0.2-0.6,0-2.2-1.2c-0.8-0.5-3.2-2.3-5.3-3.8c-5.9-4.2-10.2-7.6-16.1-12.7c-1.9-1.7-2.7-2.3-3-2.3c-0.5,0-4.5,0.4-5,0.5
			c-0.2,0-0.4,0.1-0.4,0.2c0,0.1,1.3,1.4,2.9,3c1.6,1.6,3.4,3.5,4,4.2c0.6,0.7,1.5,1.8,2,2.3l0.9,1.1l30.7,13.8
			c26.3,11.8,31.4,14,35,15.4c5.6,2.1,9.9,3.8,15.6,6.3c10.6,4.6,19.3,8.7,22.6,10.6c1.1,0.6,1.6,0.8,1.9,0.7
			C1009.2,8529.5,1009.8,8529.4,1010.3,8529.3z M1034.2,8525.5c0.7-0.3,1.2-1,1.2-1.7c0-1-0.6-1.8-3.2-4.3c-1.4-1.3-2.5-2.5-2.5-2.5
			c0-0.7,3.5,0.8,7.8,3.3c2,1.2,3.6,2.3,5.8,4c1.2,0.9,1.4,1,2,1c1,0,2-0.2,2-0.4c0.1-0.2-3.3-3-5.7-4.8c-4.4-3.2-12.2-7-20.7-10
			c-4.6-1.6-7-2.1-7.8-1.4c-0.4,0.3-0.4,0.3-0.2,1.1c0.5,1.9,0.2,1.7,7.4,5.6c7,3.8,8.9,5,8.4,5.6c-0.2,0.3-0.9,0.1-3.1-0.7
			c-2.3-0.9-3.5-1.2-5.7-1.8c-4.4-1-7.4-2.4-15.6-7.1c-4.9-2.8-7.8-4.3-13.3-6.8c-2.5-1.2-5.3-2.5-6.3-3.1c-3.6-1.9-5.3-2.6-12.2-5
			c-5.7-1.9-10.9-4.2-16.8-7.5c-4.2-2.3-9.4-5-16.3-8.5c-11.8-5.9-14.2-7.3-17.7-10l-2-1.6l-1.4,0.1c-2.2,0.2-2.2,0.3-0.7,1.5
			c3.9,3,8.3,5.8,13.3,8.5c1,0.5,5.1,2.6,9.1,4.6c8.9,4.5,13.4,6.8,16.8,8.8c4.6,2.6,5.7,3.2,16.2,7.3c6.5,2.6,8.7,3.5,10,4.2
			c0.6,0.3,2.4,1.1,4.1,1.8c6.9,2.8,8.9,3.8,15.7,7.6c7.9,4.4,12.7,6.7,15.9,7.5c3.1,0.8,5.5,1.6,8.7,2.8
			C1032.3,8525.8,1033.2,8526,1034.2,8525.5z M1054.8,8524.3c0.5-0.1,0.9-0.2,0.9-0.3c0.1-0.2-7.8-6-13.6-10
			c-8-5.6-13.1-8.4-18.4-10c-0.8-0.2-4.5-1.1-8.1-2c-7.5-1.8-13.9-3.4-17.1-4.4c-1.2-0.4-2.4-0.7-2.7-0.7c-0.5,0-1,0.3-2,1.2
			c-0.6,0.6-0.8,0.7-1.1,0.6c-0.8-0.3-10.8-4.3-13.9-5.7c-7.2-3.1-18.8-8.8-22.6-11c-1.6-0.9-2.9-2-2.6-2.1
			c0.7-0.2,5.6,1.9,14.3,6.2c13.1,6.4,17.6,8.1,21.4,7.9c1.3,0,1.7-0.1,2.8-0.6c1.5-0.7,2.1-0.7,4.2-0.3c2,0.4,4.1,1.1,8.6,2.6
			c4.4,1.5,8.9,2.9,14.7,4.4c5,1.4,8.9,2.6,13.1,4.3c1.7,0.7,2,0.8,1.8,0.4c-0.3-0.4-10.5-7-11-7.2c-0.4-0.1-1.6-0.3-2.8-0.5
			c-5.8-1.1-10.6-2.5-10.5-3.2c0.1-0.4,0.9-0.5,2.4-0.4c1.6,0.1,2.7,0.4,5.3,1.3c1,0.4,2,0.7,2.2,0.7l0.4,0.1l-0.3-0.3
			c-0.2-0.2-2.1-1.5-4.2-2.9l-3.9-2.6l-2-0.1c-3.1-0.1-6.6-1-8.3-2.1c-0.6-0.4-0.6-0.5-0.6-0.9c0-0.5,0.1-0.5,0.6-0.7
			c0.7-0.2,2.9-0.2,3.8,0.1c0.3,0.1,0.6,0.1,0.7,0c0.2-0.2-5.7-4.1-6.9-4.6c-1.2-0.4-2.3-0.9-3.7-1.7c-3.7-2.2-9.1-4.1-11.2-4.1
			c-2.7,0-6.9-1.6-12.2-4.6c-3.1-1.7-5.7-3.5-9.7-6.6c-0.3-0.2-0.5-0.2-1.7-0.1c-1.6,0.2-1.9,0.3-1.4,0.7c0.2,0.1,1.4,1.1,2.7,2
			c5.1,3.9,10.7,7.4,16.1,10.1c3.3,1.7,4.2,1.9,7.8,2.2c2.4,0.2,3.7,0.5,5.7,1.6c1.2,0.7,4.1,3,4.1,3.4c0,0.4-0.8,0.2-3.3-0.7
			c-3.4-1.2-3.8-1.3-7.3-1.1c-5,0.2-5.5,0.1-8.9-1.5c-3.2-1.6-5.3-2.8-7.2-4.3c-1.9-1.5-9.4-8.5-11.1-10.4c-0.7-0.7-1.3-1.3-1.4-1.4
			c-0.3-0.2-4.6,0.4-4.8,0.6c-0.3,0.3,2.5,2.8,6.2,5.7c1.6,1.2,4.3,3.4,5.9,4.8c3.7,3.2,5.4,4.4,9.5,6.7c1.8,1,3.9,2.3,4.7,2.8
			s1.9,1,2.3,1.2c1.1,0.4,2.8,0.3,4-0.1c3.3-1.1,9.8,0.2,11.9,2.4c0.7,0.7,0.5,0.8-1.3,0.7c-1.7-0.2-3.6,0-5.7,0.5
			c-1.9,0.5-2.9,0.5-4.6,0c-2.9-0.9-9.5-3.8-23-10.1c-11.2-5.2-14.6-6.9-22.2-11.3l-3.1-1.8l-1.9,0.2c-1.1,0.1-2,0.3-2.1,0.4
			c-0.2,0.2-0.4,0,2.8,2.1c2.9,1.9,3,2,2.9,2.1c-0.3,0.3-3.3-1-6.7-2.8l-2-1.1l-1.8,0.2c-1.8,0.2-2,0.2-2,0.5c0,0.2,2.9,1.9,6.6,3.9
			c3.3,1.8,28.7,15,34,17.6c8.2,4.1,12,5.8,18.2,8.2c2.1,0.8,6,2.4,8.7,3.6c6.6,2.8,8.8,3.6,9.9,3.6c0.7,0,1-0.5,1.1-1.8
			c0.1-1.7,0.3-1.7,5.3-0.3c1.8,0.5,5.9,1.6,9.1,2.5s6.7,1.8,7.8,2.1c4.5,1.4,8.5,3.7,18.4,10.8c4.1,2.9,7.6,5.3,7.9,5.5
			c0.3,0.2,0.6,0.3,1,0.2C1053.7,8524.4,1054.3,8524.3,1054.8,8524.3z M1068.5,8519.2c0.2-0.7-0.1-6.8-0.3-7
			c-0.1-0.1-1.4-1.1-2.8-2.2c-2.7-2-4.8-3.9-4.8-4.1c0-0.4,1.8,0.4,5.1,2.4c1.2,0.7,2.3,1.3,2.4,1.3c0.1,0,0.2-0.4,0.2-1.6l0-1.5
			l-3.8-2.3c-6.1-3.7-8.6-5.1-13-7.4c-2.3-1.2-6-3.2-8.3-4.4c-7.3-3.9-12.3-6.3-18.5-8.9c-3.5-1.5-5.4-2.2-9.9-3.6
			c-2-0.6-5.5-1.8-7.7-2.6c-3.8-1.3-4.6-1.6-4.1-1.1c0.4,0.4,9.6,6.4,10.1,6.7c0.3,0.1,1.3,0.5,2.3,0.8c5.3,1.6,11,4.2,11,4.9
			c0,0.4-1,0.3-3.4-0.3c-1.8-0.4-2.2-0.5-2-0.2c0,0.1,1.7,1.2,3.7,2.6c2.8,1.9,3.9,2.5,5.1,3c2.4,0.9,4.5,2.1,4.5,2.6
			c0,0.1-0.1,0.1-0.3,0.1c-0.2,0-0.3,0.1-0.3,0.2c0.1,0.3,13.2,8.9,16,10.6c5.8,3.4,10.8,6.7,15.4,10.2c1.6,1.2,3,2.2,3.1,2.2
			S1068.5,8519.5,1068.5,8519.2z M1068.4,8497.8v-1l-1.2-1.1c-4.6-4-5.4-4.5-22.2-11.3c-10.6-4.3-13.1-5.4-16.7-7.4
			c-1-0.5-4-2-6.6-3.3c-6.3-3-7.9-3.9-11.3-6.3c-1.7-1.2-1.9-1.4-6.9-5.6c-4-3.4-4.6-3.8-6-4.6c-3.7-2.2-7.3-2.9-10.3-2
			c-3,0.9-6.2,0.2-9.2-2.2c-0.7-0.6-1.4-1-1.5-1c-0.1,0-0.1,1.5-0.1,3.3v3.3l4.1,2.7c2.2,1.5,4.8,3.1,5.8,3.6
			c4.8,2.5,11.6,5.6,15.9,7.3c2.8,1,4.5,1.5,6.5,1.7c3.7,0.4,4.2,0.6,22.9,8.1c14,5.7,23.5,9.6,27.7,11.5c2.1,0.9,4.9,2.7,7.1,4.3
			C1068.3,8499.1,1068.4,8499.1,1068.4,8497.8z M1055.5,8485.1c0-0.1-3.3-3.3-4.4-4.3c-1.9-1.6-4.4-3.1-11.2-6.5
			c-9.5-4.7-12.1-6.4-16.3-10.3c-2.5-2.4-4.9-5-7.3-8c-1.4-1.8-1.6-2.1-1.2-2.4c0.2-0.2,0.3-0.2,0.9,0.1c1.3,0.7,8.3,6,10,7.5
			c0.5,0.5,1.6,1.8,2.5,2.9c0.8,1.1,1.8,2.3,2.2,2.6c0.8,0.7,5.3,2.8,7.3,3.4c1.5,0.5,2.1,0.6,2.1,0.3c0-0.2-16.1-14.7-22.4-20.2
			c-5.5-4.8-5.5-4.8-13.8-9.9c-6.4-3.9-11.6-6.7-15.3-8.2c-1-0.4-4-1.8-6.7-3c-3-1.3-5-2.1-5-2.1c-0.1,0.1-0.1,1.6-0.1,3.6l0,3.4
			l0.5,0.3c1.4,0.7,12.7,5.1,20.7,8c7,2.5,9.6,3.7,11.5,5.7c0.8,0.8,0.9,1,0.9,1.4c0,0.9-0.3,0.9-2-0.2c-1.7-1-4.7-2.6-8.4-4.4
			c-4.9-2.3-6.1-2.7-12.1-4.4c-4.5-1.2-7.8-2.2-9.5-2.9c-0.7-0.3-1.4-0.5-1.5-0.5c-0.2,0-0.2,0.8-0.2,3.7v3.6l1.2,0.9
			c2.2,1.8,5.7,3.1,17,6.4c6,1.7,7.1,2.1,9,3.1c2.2,1,3.4,2.1,6.9,6.2c5.8,6.7,8.2,9.1,10,10.1c1.5,0.8,3.5,1.6,7.4,3
			c8.6,3,15.3,5.7,24.5,10C1054.9,8485.1,1055.5,8485.4,1055.5,8485.1z M893.4,8478c0-0.1-1.3-1.4-2.8-2.8l-2.8-2.7l-1,0.1
			c-0.6,0-1.1,0.2-1.2,0.2c-0.1,0.1,0.4,0.7,1.3,1.6c1.4,1.5,1.5,1.5,3.9,2.6c1.3,0.6,2.5,1.1,2.6,1.1
			C893.3,8478.2,893.4,8478.1,893.4,8478z M986.9,8473.2c-0.1-0.3-14.7-9.9-15.1-9.9c-1.4,0-4.9,0.5-4.9,0.7c0,0.1,0.3,0.6,0.9,1.1
			c1.1,1.1,1.7,1.4,6.2,3.1c1.7,0.6,5.1,2,7.8,3.1c2.6,1.1,4.9,2,5,2C986.8,8473.3,986.9,8473.3,986.9,8473.2z M878.8,8467.3
			c1.9-0.2,3.5-0.4,3.5-0.5c0.2-0.2-0.3-0.4-2.3-0.8c-1.1-0.3-2.8-0.7-3.5-0.9c-0.8-0.2-1.5-0.4-1.6-0.3c-0.2,0.1-0.2,2.7,0,2.8
			C875,8467.7,875,8467.7,878.8,8467.3z M946,8467.4c0.4-0.3,0.4-0.9,0-1.1c-0.2-0.1-0.6-0.1-2,0c-2.4,0.3-2.5,0.5-0.5,1
			C944.8,8467.8,945.6,8467.8,946,8467.4z M894.8,8465.6c0.7-0.1,5-0.6,9.6-1.1c21-2.3,26.4-2.9,26.5-3c0.3-0.2-0.1-0.3-1.2-0.4
			c-1.9-0.2-4.7-0.6-5.1-0.8c-0.2-0.1-0.3-0.3-0.3-0.5c0.1-0.8,2.8-1.1,10.2-0.9c6.1,0.1,6.5,0.1,12.9-0.9c6.8-1,12.3-2.1,16.4-3.4
			c2.8-0.8,5.9-2.1,6.2-2.4c0.1-0.2,0.2-1.2,0.2-3.7c0-3.4,0-3.9-0.4-3.9c-0.2,0-5.7,3-8.9,4.9c-2.9,1.7-4.6,2.6-6.1,3
			c-0.8,0.3-1.6,0.3-6.7,0.4c-3.2,0.1-6.7,0.2-7.7,0.2c-6.4,0.3-12.5,1.2-15.5,2.1c-1.7,0.5-4.4,1.1-8.1,1.6
			c-1.8,0.3-4.5,0.6-5.9,0.9c-4,0.6-7.6,0.9-11.2,0.9c-5.9,0-8-0.6-16.7-4.7c-4.6-2.1-6.4-3.2-6.9-4.3c-0.3-0.5-0.2-2,0.2-2.8
			c0.6-1.4,5.6-5.1,9.5-7c2.4-1.2,3.7-2.1,5.8-3.9c4.3-3.6,6.9-5.1,11.9-6.8c3.5-1.2,5-1.8,8.3-3.4c3.4-1.7,4.2-2,12.1-4.5
			c9.5-3,9.4-3,13.6-3.2c4.5-0.2,9.4,0.1,12.4,0.9c2.6,0.7,5.8,2.5,14.2,7.9c2,1.3,5.4,3,5.8,2.8c0.2-0.1,0.3-0.5,0.3-3.8
			c0-3.2,0-3.8-0.3-4c-0.5-0.5-2.8-1.4-8.6-3.2c-6.8-2.2-9.2-2.8-12-3.3c-2.5-0.4-3.2-0.4-8,0.1c-2.2,0.2-7.9,0.9-12.7,1.4
			c-7.7,0.8-8.8,1-9.5,1.3c-0.5,0.2-2.5,1.3-4.4,2.5c-5.4,3.2-5.8,3.3-10.8,5.1c-4.5,1.6-6.9,2.7-13.3,6.3c-1.7,0.9-4.8,2.5-6.9,3.4
			c-4,1.8-6.9,3.2-8.1,3.9l-0.7,0.4v8.8v8.7l1.1,0.6c2.9,1.4,5.2,2.1,8.8,2.6c1.4,0.2,3.1,0.4,3.7,0.5c1.7,0.3,6.9,0.4,10.9,0.2
			c6.3-0.3,11.2-0.9,15.7-1.7c3-0.6,4.9-0.6,5.7-0.2c1.2,0.7,0.7,0.9-4.9,1.8c-14.6,2.2-16.7,2.5-21.8,2.3
			c-5.7-0.2-8.6-0.7-14.6-2.7c-2.2-0.7-4.2-1.3-4.4-1.3c-0.3,0-0.3,0.1-0.3,1.1v1.1l0.8,0.4c1.3,0.6,6.8,2.3,8.9,2.7
			C888.5,8465.5,892.2,8465.9,894.8,8465.6z M964.9,8457.9c2.6-0.3,4.9-0.6,5-0.7c0.3-0.3,0.2-2.9-0.1-3c-0.3-0.1-10.1,3.8-10.1,4.1
			C959.5,8458.5,959.5,8458.5,964.9,8457.9z M905.3,8454c1.7-0.2,3.6-0.7,9.6-2.3c4.9-1.4,9.8-2.6,13.2-3.5l2.1-0.5l5,0.5
			c7.2,0.7,8.9,0.8,10.4,0.6c2.7-0.4,5.6-1.3,10.7-3.3c3.2-1.3,6.1-2.3,8.5-3c2.2-0.6,4.4-1.7,5.1-2.5c0.3-0.3,0.3-4.5,0-5
			c-0.7-1.2-3.8-4.5-5.8-5.9c-0.7-0.5-1.8-1.2-2.6-1.6c-1.8-0.9-6.2-2.6-9.3-3.7c-4.4-1.6-3.5-1.5-10.8-1.4c-6.1,0-9.7,0.2-12.5,0.5
			c-1.4,0.2-11.3,2.7-13.3,3.3c-2.7,0.9-3.6,1.3-10.8,5.3c-3.9,2.2-7.3,3.9-10.9,5.5c-3.5,1.5-4.9,2.3-6.3,3.6c-2.2,2-3.3,3.9-3,5.4
			c0.2,1.1,1.1,2.7,2.2,3.7c2.6,2.3,6.1,3.3,14.3,4.3C902.3,8454.1,904,8454.1,905.3,8454z M877.2,8435.5c3.3-1.7,10.2-5,12.6-6.1
			c2.8-1.2,4.4-1.8,7.6-2.6c1.3-0.3,2.9-0.9,3.6-1.1c0.6-0.3,2.7-1.5,4.5-2.8c1.9-1.2,3.9-2.6,4.6-3c1.8-1.1,1.7-1.2-1.9-0.7
			c-2.6,0.3-2.3,0.2-5.6,2.4c-2.3,1.6-3.3,2-7.2,3.2c-4.6,1.4-5.7,1.8-8.4,3.2c-9.6,4.6-11.8,5.7-12,5.9c-0.1,0.2-0.2,2.3,0,2.5
			C875.1,8436.5,875.3,8436.4,877.2,8435.5z M997.9,8433.1c-0.5-0.6-21-18.5-21.2-18.4c-0.1,0.1-0.2,1.7-0.2,4v3.9l1.3,0.9
			c2.6,1.8,4.9,3,10.6,5.7c6.4,3,8.9,4.1,9.4,4.1C998,8433.4,998.1,8433.4,997.9,8433.1z M877.7,8428.1c4.7-2.4,6.4-3.3,10.1-5
			c2.2-1,3.6-1.8,3.5-1.9c-0.1-0.1-1.2,0-2.9,0.2l-2.8,0.3l-3.3,1.6c-3.8,1.8-7.4,3.7-7.5,3.9c-0.2,0.2-0.2,2,0,2.1
			C875,8429.5,875,8429.5,877.7,8428.1z M875.6,8423.2c0.2-0.1,0.2-0.2,0.1-0.3c-0.2-0.2-0.7,0-0.7,0.2
			C874.9,8423.4,875.2,8423.4,875.6,8423.2z M970,8419.9c0.2-0.5,0.1-3.9-0.1-4.2c-0.1-0.1-1.3-0.6-2.6-1.1c-4.4-1.6-3.5-1.5-7.8-1
			c-2.7,0.3-3.7,0.5-3.7,0.6c0,0.1,0.9,0.5,2.1,0.9c3.2,1.1,5.5,2.1,8.7,3.6c1.6,0.8,3,1.4,3.1,1.4
			C969.8,8420.1,969.9,8420,970,8419.9z"/>
		<path class="st2" d="M942.6,8474.6c-0.7-0.5-1.2-0.9-0.9-0.9c0.4,0,1.8,0.9,1.8,1.1C943.6,8475.1,943.3,8475.1,942.6,8474.6z"/>
		<path class="st2" d="M1048.6,8503.5c-1.7-0.7-11.4-5.8-11.8-6.2c-0.3-0.2,1.4,0,3.4,0.5c3.3,0.8,5.2,1.7,7.3,3.2
			c0.9,0.7,2.6,2.5,2.6,2.8C1050.1,8503.9,1049.4,8503.8,1048.6,8503.5z"/>
		<path class="st2" d="M903.8,8450.8c-1.9-0.2-6-1.4-7.7-2.2c-0.5-0.2-1.2-0.7-1.4-1c-1.8-1.9,0.2-4.9,5.3-8.3
			c2.2-1.4,5-3.5,7.7-5.4c5.5-4.1,7.8-5.2,16.5-7.2c5.2-1.2,7.1-1.5,7.2-0.9c0.1,0.4-0.6,0.6-4.1,1.7c-4.1,1.3-7.8,2.7-9.3,3.5
			c-2.2,1.2-7.1,5.3-9.1,7.7c-1.6,1.9-2.3,3.5-1.9,4.5c0.4,1.2,2.5,2.9,4.4,3.5c1.4,0.4,2.6,0.4,6.5-0.4c6.7-1.3,8.4-1.5,8.4-0.7
			c0,0.3-0.3,0.4-2.9,1.1c-1.3,0.4-3.6,1-5.1,1.4C912.6,8449.7,905.8,8451,903.8,8450.8z"/>
		<path class="st2" d="M941.3,8444.6c-0.1-0.1-0.1-0.3,0-0.4c0.1-0.2,5.4-2.3,8.2-3.1c1.6-0.5,3.3-0.8,3.3-0.6
			c0,0.3-1.9,1.6-3.3,2.3C946.1,8444.2,941.6,8445.3,941.3,8444.6z"/>
		<path class="st2" d="M911.4,8444.1c-1.5-0.5-1.9-1.3-1.4-2.4c0.4-0.9,1.2-1.9,3.4-4c2.9-2.8,6-4.8,8.4-5.4c1.7-0.4,1.5,0-0.6,1.4
			c-3.8,2.6-4.3,3.2-4.3,5c0,1.3,0.3,2,1.3,2.4c0.5,0.3,1.1,0.3,3.1,0.4c1.3,0,2.4,0.1,2.5,0.1c0,0,0,0.2,0,0.3c0,0.5-1.7,1-7.4,2
			C913.4,8444.4,912.4,8444.5,911.4,8444.1z"/>
		<path class="st2" d="M921.4,8438.6c-0.9-0.1-1.1-0.1-1.1-0.4c-0.1-0.7,1.5-1.9,5-3.6c2.1-1.1,3.7-1.6,4.5-1.6
			c0.9,0,0.8,0.3-0.2,1.4c-1.4,1.4-1.5,1.9-0.6,2.3c0.5,0.2,3.6,0.4,7.4,0.5c2.7,0,2.8,0,3.6-0.4c0.4-0.2,0.9-0.6,1.1-0.8
			c0.2-0.4,0.2-0.5,0-0.8c-0.5-0.9-1.8-1.2-6.2-1.8c-1.9-0.2-2.8-0.5-2.6-0.9c0.8-1.2,9.5-0.9,12.6,0.5c1.5,0.6,2,1.5,1.4,2.4
			c-0.5,0.9-2.2,2.4-3.1,2.8l-0.9,0.4l-9.9,0C926.9,8438.7,921.9,8438.7,921.4,8438.6z"/>
		<path class="st2" d="M960.4,8436.5c-0.1-0.1-0.6-0.8-1.1-1.6c-1.5-2.6-3.1-4.2-5.6-5.7c-2.1-1.3-2.4-1.8-1.2-1.8
			c1.3,0,4.2,1,5.5,2c0.8,0.6,2.6,2.8,3.4,4.2c0.8,1.4,0.8,2.1,0.1,2.7C961,8436.6,960.7,8436.7,960.4,8436.5z"/>
		<path class="st2" d="M950.8,8434.9c-0.1-0.1-0.6-0.6-1-1.2c-0.4-0.6-1-1.3-1.3-1.5c-0.9-0.7-2.6-1.4-4.8-2.2
			c-2.1-0.7-2.3-0.8-2.3-1.2c0-0.4,0.5-0.5,2-0.5c1.9,0,4,0.4,5.2,0.9c1.3,0.6,3,1.9,3.6,2.8c0.5,0.7,0.5,0.8,0.5,1.5
			c0,0.5-0.2,0.9-0.4,1.1C951.9,8435.1,951.2,8435.2,950.8,8434.9z"/>
	</g>
</g>
</svg>
